<svg width="14" height="15" viewBox="0 0 14 15" fill="none" xmlns="http://www.w3.org/2000/svg">
<path d="M13.1971 11.3536C13.3923 11.1583 13.3923 10.8417 13.1971 10.6464L10.0151 7.46447C9.81982 7.2692 9.50323 7.2692 9.30797 7.46447C9.11271 7.65973 9.11271 7.97631 9.30797 8.17157L12.1364 11L9.30797 13.8284C9.11271 14.0237 9.11271 14.3403 9.30797 14.5355C9.50323 14.7308 9.81982 14.7308 10.0151 14.5355L13.1971 11.3536ZM0.843506 11.5L12.8435 11.5L12.8435 10.5L0.843506 10.5L0.843506 11.5Z" fill="black"/>
<path d="M0.489952 3.64645C0.29469 3.84171 0.29469 4.15829 0.489952 4.35355L3.67193 7.53553C3.8672 7.7308 4.18378 7.7308 4.37904 7.53553C4.5743 7.34027 4.5743 7.02369 4.37904 6.82843L1.55061 4L4.37904 1.17157C4.5743 0.976311 4.5743 0.659729 4.37904 0.464467C4.18378 0.269205 3.86719 0.269205 3.67193 0.464467L0.489952 3.64645ZM12.8435 3.5L0.843506 3.5L0.843506 4.5L12.8435 4.5L12.8435 3.5Z" fill="black"/>
</svg>
