<svg width="35" height="36" viewBox="0 0 35 36" fill="none" xmlns="http://www.w3.org/2000/svg">
<path d="M31.2497 19.4552L34.9574 18.3387C34.8457 16.6643 34.8655 16.9632 34.7538 15.2872L30.9312 14.7027C30.6425 13.7755 30.5953 13.6253 30.3066 12.6973L33.0902 9.93685L31.5331 7.33212L27.8854 8.64427L26.4263 7.16702L27.6422 3.38941L25.0888 1.82923L22.4495 4.73677L20.4919 4.12647L19.8627 0.200189L16.8989 0.0437012L15.8745 3.87765L13.8659 4.27435L11.5352 1.0953L8.83738 2.37302L9.66268 6.26018L8.06223 7.57545L4.56649 5.87835L2.75478 8.3039L5.2436 11.3452C4.86363 12.2364 4.80055 12.3812 4.41906 13.2724L0.553984 13.4445C0.273565 15.1009 0.323721 14.8028 0.0425415 16.4561L3.61884 17.9655C3.68343 18.9372 3.69483 19.0953 3.75867 20.0663L0.416434 22.0647L1.32305 24.9761L5.16761 24.6013L6.23989 26.3947L4.185 29.7631L6.30144 31.9069L9.53957 29.7325L11.2981 30.8076L10.9941 34.7746L13.8363 35.6603L15.7225 32.1871L17.7652 32.2974L19.2851 35.9545L22.201 35.3786L22.3036 31.4007L24.1662 30.5228L27.1665 33.0321L29.4889 31.1269L27.7836 27.5558L29.0321 25.8876L32.8205 26.674C33.4778 25.1381 33.3608 25.4127 34.0174 23.876L30.8963 21.5287L31.2497 19.4552ZM17.5061 28.7224C15.4469 28.7224 13.434 28.0937 11.7219 26.9159C10.0098 25.738 8.67534 24.0639 7.88733 22.1052C7.09933 20.1464 6.89315 17.9911 7.29487 15.9118C7.69659 13.8324 8.68817 11.9224 10.1442 10.4232C11.6002 8.92411 13.4553 7.90319 15.4749 7.48958C17.4945 7.07596 19.5879 7.28824 21.4903 8.09957C23.3927 8.9109 25.0187 10.2848 26.1627 12.0476C27.3067 13.8104 27.9173 15.8829 27.9173 18.003C27.9173 20.846 26.8204 23.5725 24.8679 25.5828C22.9154 27.5931 20.2673 28.7224 17.5061 28.7224Z" fill="#181817"/>
</svg>
