<svg xmlns="http://www.w3.org/2000/svg" viewBox="0 0 337.11 31.7"><g id="f4425c00-a47e-4f72-bbd9-40ede5ba58a7" data-name="Lag 2"><g id="fbf4650a-f14d-4b2e-8eb8-86ea552e3ac6" data-name="Lag 1"><path d="M208.9,31.6a2.73,2.73,0,0,1-1.9-.8L194.2,17.7a2.44,2.44,0,0,1-.5-2.9,2.5,2.5,0,0,1,2.4-1.6h5.5A4.23,4.23,0,0,0,206,9.3c0-2-2.1-3.8-4.5-3.8H191.1a.35.35,0,0,0-.1.2V29a2.65,2.65,0,1,1-5.3,0V5.7A5.36,5.36,0,0,1,191,.3h10.4c5.3,0,9.7,4,9.7,9a9.51,9.51,0,0,1-8.8,9.2l8.4,8.6a2.27,2.27,0,0,1,.8,2,2.84,2.84,0,0,1-.9,1.9A2.52,2.52,0,0,1,208.9,31.6Zm73.5,0c-4.6,0-8.1-1.3-10.6-3.8s-3.8-6.3-3.8-11V2.7a2.65,2.65,0,1,1,5.3,0V16.8c0,6.6,2.9,9.5,9.3,9.5s9.3-2.8,9.3-9.5V2.7a2.6,2.6,0,1,1,5.2,0V16.8c0,9.5-5.2,14.8-14.6,14.8Zm52.1,0a2.69,2.69,0,0,1-2.7-2.7V5.5c-.1-.1-.1,0-.1,0l-6.2,10.3a5.29,5.29,0,0,1-4.6,2.6,5.54,5.54,0,0,1-4.6-2.6L310.1,5.5a.1.1,0,0,0-.1-.1V28.9a2.65,2.65,0,1,1-5.3,0V5.5A5.36,5.36,0,0,1,310,.1a5.29,5.29,0,0,1,4.6,2.7l6.2,10.3.1.1.1-.1,6.2-10.3A5.29,5.29,0,0,1,331.8.1a5.36,5.36,0,0,1,5.3,5.4V29A2.52,2.52,0,0,1,334.5,31.6Zm-77.1,0a2.67,2.67,0,0,1-2.6-2.7V2.8a2.65,2.65,0,1,1,5.3,0V29A2.67,2.67,0,0,1,257.4,31.6Zm-95.1,0c-10,0-16.7-6.3-16.7-15.8,0-9.3,6.9-15.8,16.7-15.8,10,0,16.7,6.3,16.7,15.8S172.3,31.6,162.3,31.6Zm0-26.2c-7.2,0-11.4,3.9-11.4,10.4s4.3,10.4,11.4,10.4,11.4-3.9,11.4-10.4S169.5,5.4,162.3,5.4ZM127.4,31.6c-10,0-16.7-6.3-16.7-15.8,0-9.3,6.9-15.8,16.7-15.8,4.8,0,9,1.4,12,4.2a3.1,3.1,0,0,1,.9,1.8,2.64,2.64,0,0,1-.7,1.9,3.1,3.1,0,0,1-1.8.9,2.64,2.64,0,0,1-1.9-.7,12.42,12.42,0,0,0-8.5-2.8c-7.2,0-11.4,3.9-11.4,10.4s4.3,10.4,11.4,10.4a12.6,12.6,0,0,0,8.5-2.8,2.54,2.54,0,0,1,3.7.2,2.69,2.69,0,0,1-.2,3.8A17.11,17.11,0,0,1,127.4,31.6Zm-28.5,0A5.41,5.41,0,0,1,94.3,29L80.5,5.5a.1.1,0,0,0-.1-.1l-.1,23.5a2.65,2.65,0,1,1-5.3,0V5.5A5.36,5.36,0,0,1,80.3.1a5.29,5.29,0,0,1,4.6,2.7L98.7,26.3a.1.1,0,0,0,.1.1c.1,0,.1,0,.1-.1V2.8A2.61,2.61,0,0,1,101.5.1a2.69,2.69,0,0,1,2.7,2.7V26.2A5.36,5.36,0,0,1,98.9,31.6Zm-47.2,0c-10,0-16.7-6.3-16.7-15.8C35,6.5,41.9,0,51.7,0c10,0,16.7,6.3,16.7,15.8S61.7,31.6,51.7,31.6Zm0-26.2c-7.2,0-11.4,3.9-11.4,10.4s4.3,10.4,11.4,10.4,11.4-3.9,11.4-10.4S58.8,5.4,51.7,5.4Zm-35,26.2C6.7,31.6,0,25.3,0,15.8,0,6.5,6.9,0,16.7,0c4.8,0,9,1.4,12,4.2A3.1,3.1,0,0,1,29.6,6a2.64,2.64,0,0,1-.7,1.9,3.1,3.1,0,0,1-1.8.9,2.64,2.64,0,0,1-1.9-.7,12.42,12.42,0,0,0-8.5-2.8C9.5,5.3,5.3,9.2,5.3,15.7S9.6,26.1,16.7,26.1a12.6,12.6,0,0,0,8.5-2.8,2.54,2.54,0,0,1,3.7.2,2.69,2.69,0,0,1-.2,3.8C25.8,30.1,21.6,31.6,16.7,31.6Zm214.6-.2h-7.8a5.36,5.36,0,0,1-5.3-5.4V5.7A5.36,5.36,0,0,1,223.5.3H231c5.7-.1,10,1.3,12.8,4.1,2.6,2.6,3.9,6.5,3.9,11.4s-1.3,8.8-3.9,11.4C241.1,30.1,237,31.4,231.3,31.4Zm-.1-25.9h-7.6l-.1.1V25.9l.1.1h7.5c4.3,0,7.3-.8,9-2.6,1.6-1.6,2.4-4.2,2.4-7.7s-.8-6-2.4-7.7S235.5,5.5,231.2,5.5Z"/></g></g></svg>