<svg xmlns="http://www.w3.org/2000/svg" viewBox="0 0 34 42"><g id="bd3ec78a-0af7-4884-bbdf-83535b0529bd" data-name="Lag 2"><g id="a7031326-e148-4f2c-9a99-a8f8fc5c5d01" data-name="Lag 1"><path d="M3,3.89A.89.89,0,0,1,3.89,3H27V1.26a1.28,1.28,0,0,0-.09-.48,1.2,1.2,0,0,0-.28-.41,1.2,1.2,0,0,0-.41-.28A1.28,1.28,0,0,0,25.74,0H1.26A1.28,1.28,0,0,0,.78.09,1.2,1.2,0,0,0,.37.37,1.2,1.2,0,0,0,.09.78,1.28,1.28,0,0,0,0,1.26V33.74a1.28,1.28,0,0,0,.09.48,1.2,1.2,0,0,0,.28.41,1.2,1.2,0,0,0,.41.28,1.28,1.28,0,0,0,.48.09H3Z"/><path d="M32.74,7H8.26a1.28,1.28,0,0,0-.48.09,1.34,1.34,0,0,0-.69.69A1.28,1.28,0,0,0,7,8.26V40.74a1.28,1.28,0,0,0,.09.48,1.34,1.34,0,0,0,.69.69,1.28,1.28,0,0,0,.48.09H32.74a1.28,1.28,0,0,0,.48-.09,1.34,1.34,0,0,0,.69-.69,1.28,1.28,0,0,0,.09-.48V8.26a1.28,1.28,0,0,0-.09-.48,1.34,1.34,0,0,0-.69-.69A1.28,1.28,0,0,0,32.74,7ZM31,39H10V35.78H31Zm0-6.44H10V29.33H31Zm0-6.45H10V22.89H31Zm0-6.44H10V16.44H31Zm0-6.45H10V10H31Z"/></g></g></svg>