<svg viewBox="0 0 20 20" fill="none" xmlns="http://www.w3.org/2000/svg">
<path d="M18.5272 16.2338L11.7058 9.41248L18.3458 2.77252C18.9806 2.13768 18.9806 1.11415 18.3458 0.479307C17.7109 -0.155537 16.6874 -0.155537 16.0526 0.479307L9.4126 7.12574L2.95403 0.660692C2.31918 0.0258468 1.29566 0.0258468 0.660814 0.660692C0.0259689 1.29554 0.0259689 2.31906 0.660814 2.95391L7.11939 9.41248L0.47943 16.0524C-0.155415 16.6873 -0.155415 17.7108 0.47943 18.3457C1.11427 18.9805 2.1378 18.9805 2.77264 18.3457L9.4126 11.7057L16.2339 18.527C16.8688 19.1619 17.8923 19.1619 18.5272 18.527C19.162 17.8922 19.162 16.8687 18.5272 16.2338Z" fill="black"/>
</svg>
