<svg viewBox="7 7 26 26" fill="none" xmlns="http://www.w3.org/2000/svg">
<path d="M7.7724 30.658C7.7724 31.2102 8.22012 31.658 8.7724 31.658L17.7724 31.658C18.3247 31.658 18.7724 31.2102 18.7724 30.658C18.7724 30.1057 18.3247 29.658 17.7724 29.658L9.7724 29.658L9.7724 21.658C9.7724 21.1057 9.32469 20.658 8.7724 20.658C8.22012 20.658 7.7724 21.1057 7.7724 21.658L7.7724 30.658ZM16.0653 21.9509L8.06529 29.9509L9.47951 31.3651L17.4795 23.3651L16.0653 21.9509Z" fill="black"/>
<path d="M32 8.43042C32 7.87814 31.5523 7.43042 31 7.43042L22 7.43042C21.4477 7.43042 21 7.87814 21 8.43042C21 8.98271 21.4477 9.43042 22 9.43042L30 9.43042L30 17.4304C30 17.9827 30.4477 18.4304 31 18.4304C31.5523 18.4304 32 17.9827 32 17.4304L32 8.43042ZM23.7071 17.1375L31.7071 9.13753L30.2929 7.72331L22.2929 15.7233L23.7071 17.1375Z" fill="black"/>
</svg>
