<svg xmlns="http://www.w3.org/2000/svg" xmlns:xlink="http://www.w3.org/1999/xlink" viewBox="0 0 30 31"><defs><clipPath id="f200a1f1-8741-4eeb-8bfd-6e4b2f6364ac" transform="translate(0)"><rect width="30" height="31" fill="none"/></clipPath></defs><g id="a36e99cf-f698-4efc-af1b-7cd14f1445eb" data-name="Lag 2"><g id="ed107675-22b8-465c-a3d0-f48b05785f77" data-name="Lag 1"><g clip-path="url(#f200a1f1-8741-4eeb-8bfd-6e4b2f6364ac)"><path d="M11.59,31a11.35,11.35,0,0,1-1.09-1A15.25,15.25,0,0,1,6.43,19.6a8,8,0,0,1,2.92-6.34,8.68,8.68,0,0,1,13.5,2.91,8.09,8.09,0,0,1,.73,3.29.94.94,0,0,1-.93,1,1,1,0,0,1-1-1,6.56,6.56,0,0,0-5.75-6.39,6.78,6.78,0,0,0-6.85,3.49,7,7,0,0,0-.7,3.85,13.57,13.57,0,0,0,4,8.82c.67.69.57,1.32-.3,1.75Z" transform="translate(0)" fill="#181817"/><path d="M15.71,0c.61.06,1.22.1,1.84.18a19.9,19.9,0,0,1,8,2.78,20.48,20.48,0,0,1,3.54,2.73.92.92,0,0,1,.22,1.11.89.89,0,0,1-1,.5A1.35,1.35,0,0,1,27.74,7a18,18,0,0,0-7.45-4.34,18.34,18.34,0,0,0-8.49-.48A18,18,0,0,0,2.25,7,1,1,0,0,1,.83,7,.94.94,0,0,1,.91,5.67,20.07,20.07,0,0,1,12.49.17c.6-.07,1.2-.11,1.8-.17Z" transform="translate(0)" fill="#181817"/><path d="M15.66,7.46a12.09,12.09,0,0,1,10,6,11.38,11.38,0,0,1,1.71,6.11,4.69,4.69,0,0,1-4.71,4.65,4.81,4.81,0,0,1-3.37-1.31,4.57,4.57,0,0,1-1.44-3.25,2.86,2.86,0,0,0-5.72-.15,9.86,9.86,0,0,0,2.64,6.86,10.27,10.27,0,0,0,3.69,2.6.93.93,0,0,1,.64,1,.85.85,0,0,1-.71.81,1.64,1.64,0,0,1-.79-.11,12.06,12.06,0,0,1-4.43-3.23,11.68,11.68,0,0,1-2.95-7.82,4.66,4.66,0,0,1,3.27-4.42,4.83,4.83,0,0,1,5.38,1.72,4.66,4.66,0,0,1,.89,2.72A2.63,2.63,0,0,0,21.36,22a2.79,2.79,0,0,0,2.95-.25,2.57,2.57,0,0,0,1.17-2.24A9.76,9.76,0,0,0,20.66,11a10.18,10.18,0,0,0-11-.19A9.77,9.77,0,0,0,4.58,18.6c0,.31,0,.62,0,.92a1,1,0,0,1-1,.95.92.92,0,0,1-.94-1,11.71,11.71,0,0,1,4.22-9A12.73,12.73,0,0,1,15.66,7.46Z" transform="translate(0)" fill="#181817"/><path d="M14.94,3.71A16.36,16.36,0,0,1,28,10.12a15.21,15.21,0,0,1,1.88,3.18.91.91,0,0,1-.46,1.3.94.94,0,0,1-1.27-.54A13.78,13.78,0,0,0,21.83,7.3,14.2,14.2,0,0,0,8.56,7.11,13.8,13.8,0,0,0,1.85,14a1,1,0,0,1-1.29.56.91.91,0,0,1-.45-1.31,16.06,16.06,0,0,1,12-9.3A7.43,7.43,0,0,1,13,3.86Z" transform="translate(0)" fill="#181817"/><path d="M22.3,27.9a8.58,8.58,0,0,1-7.59-5.14,8.27,8.27,0,0,1-.65-3.13,1,1,0,1,1,1.9,0A6.59,6.59,0,0,0,22,26c.2,0,.41,0,.62,0a1,1,0,0,1,1,.94,1,1,0,0,1-1,.91Z" transform="translate(0)" fill="#181817"/></g></g></g></svg>