<svg width="9" height="7" viewBox="0 0 9 7" fill="none" xmlns="http://www.w3.org/2000/svg">
<g clip-path="url(#clip0)">
<path d="M2.565 6.47418L0.188001 4.18018C0.128527 4.124 0.0811699 4.05625 0.0488397 3.9811C0.0165095 3.90595 -0.00011071 3.82499 5.54977e-07 3.74318C0.00341599 3.5783 0.0708374 3.42123 0.188001 3.30518C0.302875 3.19504 0.45586 3.13355 0.615001 3.13355C0.774141 3.13355 0.927127 3.19504 1.042 3.30518L2.942 5.16218L7.367 0.172176C7.48025 0.058929 7.63384 -0.00469303 7.794 -0.00469303C7.95416 -0.00469303 8.10775 0.058929 8.221 0.172176C8.33425 0.285424 8.39787 0.43902 8.39787 0.599176C8.39787 0.759332 8.33425 0.912929 8.221 1.02618L3.44 6.47418C3.38389 6.53396 3.31612 6.58162 3.24087 6.61419C3.16562 6.64677 3.0845 6.66357 3.0025 6.66357C2.9205 6.66357 2.83938 6.64677 2.76413 6.61419C2.68888 6.58162 2.62111 6.53396 2.565 6.47418Z" fill="#979797"/>
</g>
<defs>
<clipPath id="clip0">
<rect width="8.393" height="6.662" fill="white"/>
</clipPath>
</defs>
</svg>
