<svg xmlns="http://www.w3.org/2000/svg" viewBox="0 0 28.64 32"><g id="bc708afb-8fdd-4051-8b26-7f06124df563" data-name="Lag 2"><g id="f3502bb9-ebed-4d1d-aa51-6864a12c114f" data-name="Lag 1"><path d="M15.34,32a17.17,17.17,0,0,1-8.67-2,12.19,12.19,0,0,1-5.06-5.5A20.35,20.35,0,0,1,0,16.13a17.89,17.89,0,0,1,1.92-8.5A13.64,13.64,0,0,1,7.41,2a17.7,17.7,0,0,1,8.72-2,24.15,24.15,0,0,1,4.92.48,21.79,21.79,0,0,1,4.36,1.35l-1.48,3.4A22.73,22.73,0,0,0,20.14,4a18.2,18.2,0,0,0-4.36-.53q-5.58,0-8.63,3.27T4.1,16a17.5,17.5,0,0,0,1.17,6.71,9.11,9.11,0,0,0,3.8,4.36,13.08,13.08,0,0,0,6.75,1.53,23.09,23.09,0,0,0,3.49-.22,25.83,25.83,0,0,0,2.62-.52V24.68H15.52v-3.1h6.41v-3.4H15.08V14.69H25.85v6.89h2.79v3.1H25.85v5.58c-1.51.49-3.07.91-4.66,1.26A30.38,30.38,0,0,1,15.34,32Z"/></g></g></svg>