<svg xmlns="http://www.w3.org/2000/svg" xmlns:xlink="http://www.w3.org/1999/xlink" viewBox="0 0 199.32 227.63"><defs><clipPath id="a4ea4661-fc27-4aaa-8b75-e3c16fd01db3" transform="translate(-0.05)"><rect width="199.32" height="227.64" fill="none"/></clipPath></defs><g id="be969437-e6b0-4a5d-b5f2-384e95c2d43c" data-name="Lag 2"><g id="a9a76ca8-5463-4915-b64a-36242fb9e232" data-name="Lag 1"><g clip-path="url(#a4ea4661-fc27-4aaa-8b75-e3c16fd01db3)"><path d="M199.32,150.61H175.63v-22H144.87v22H121.32v22h23.55v26.61a114.83,114.83,0,0,1-33.2,5.42q-37.45,0-58.23-23.88T32.67,114q0-43.35,19.41-67.16T106.64,23q23.88,0,68.7,15.23V9.81Q139.59,0,106.93,0,56.1,0,28.05,29.81t-28,84q0,55.08,27.61,84.45T107,227.63q29.3,0,68.7-11.28V172.61h23.69Z" transform="translate(-0.05)"/></g></g></g></svg>