<svg width="29" height="32" viewBox="0 0 29 32" fill="none" xmlns="http://www.w3.org/2000/svg">
<path d="M29 21.1717H25.5532V18.0791H21.0778V21.1717H17.6514V24.2643H21.0778V28.0049C19.5151 28.4866 17.8875 28.7433 16.2474 28.7668C12.6149 28.7668 9.79082 27.6479 7.77524 25.4099C5.75965 23.172 4.75234 20.0438 4.75331 16.0253C4.75331 11.9627 5.69466 8.81579 7.57736 6.58443C9.46007 4.35307 12.1061 3.23599 15.5156 3.23318C17.8318 3.23318 21.1637 3.94682 25.511 5.3741V1.37902C22.0434 0.459673 18.7257 0 15.5577 0C10.6274 0 6.80188 1.39683 4.08113 4.19048C1.36038 6.98413 0.0024263 10.9202 0.00727613 15.9986C0.00727613 21.1604 1.34631 25.1176 4.02438 27.87C6.70246 30.6224 10.5493 31.9986 15.565 31.9986C18.406 31.9986 21.7379 31.47 25.5605 30.4129V24.2643H29.0073L29 21.1717Z" fill="#181817"/>
</svg>
