<svg xmlns="http://www.w3.org/2000/svg" viewBox="0 0 189.22 211.39"><g id="ece0352f-d1d3-412e-b31b-b0ffd21b3239" data-name="Lag 2"><g id="bca70e27-f160-4794-9d22-8bd715db42c2" data-name="Lag 1"><path d="M101.38,211.39q-34.86,0-57.32-13a80.38,80.38,0,0,1-33.4-36.29Q0,138.53,0,106.56,0,74.31,12.67,50.4A90.2,90.2,0,0,1,49,13.25Q72.87,0,106.56,0A160,160,0,0,1,139.1,3.17a144,144,0,0,1,28.8,8.93l-9.79,22.46a147.24,147.24,0,0,0-25.05-8.35,120.36,120.36,0,0,0-28.8-3.46q-36.87,0-57,21.6Q27.07,65.67,27.07,105.7q0,25.62,7.78,44.35a60.27,60.27,0,0,0,25,28.8q17,10.08,44.64,10.08a156.74,156.74,0,0,0,23-1.44A169.44,169.44,0,0,0,144.86,184V163H102.53V142.56h42.33V120.1H99.65v-23h71.13v45.5h18.44V163H170.78v36.86A312.39,312.39,0,0,1,140,208.22Q124.13,211.4,101.38,211.39Z"/></g></g></svg>