<svg xmlns="http://www.w3.org/2000/svg" xmlns:xlink="http://www.w3.org/1999/xlink" viewBox="0 0 46 47"><defs><clipPath id="b6296158-ebc0-4d09-8ac1-d56d3f2c4ed2" transform="translate(0 0)"><rect width="46" height="47" fill="none"/></clipPath></defs><g id="e740a833-2d29-4551-8155-87ff49c18368" data-name="Lag 2"><g id="ad42264f-ad11-45a1-a385-c7dcf8a543c3" data-name="Lag 1"><g clip-path="url(#b6296158-ebc0-4d09-8ac1-d56d3f2c4ed2)"><path d="M25.39,6,42.58,19.69a2.21,2.21,0,0,0,1.38.47c1.85,0,2.74-1.94,1.38-3L24.39.47A2.26,2.26,0,0,0,23,0a2.21,2.21,0,0,0-1.38.47L.65,17.14c-1.35,1.07-.46,3,1.39,3H2.1a2.23,2.23,0,0,0,1.39-.46L20.67,6a3.88,3.88,0,0,1,4.72,0Z" transform="translate(0 0)"/><path d="M40,20.81,25.27,9.25a3.77,3.77,0,0,0-4.54,0L6,20.81a3.49,3.49,0,0,0-.94,1.13,3,3,0,0,0-.34,1.37v20.3A3.18,3.18,0,0,0,5.87,46a4.35,4.35,0,0,0,2.8,1H18V27h9.8V47h9.49a4.35,4.35,0,0,0,2.8-1,3.18,3.18,0,0,0,1.16-2.4V23.31A3,3,0,0,0,41,21.94,3.49,3.49,0,0,0,40,20.81Z" transform="translate(0 0)"/><path d="M37.88,4.15H35.35a.52.52,0,0,0-.56.48v7.82a.52.52,0,0,0,.56.48h2.53a.52.52,0,0,0,.56-.48V4.63A.52.52,0,0,0,37.88,4.15Z" transform="translate(0 0)"/></g></g></g></svg>