<svg xmlns="http://www.w3.org/2000/svg" viewBox="0 0 107 71"><g id="f8ab7a9e-cc57-41bb-b4e8-0f176d2fc203" data-name="Lag 2"><g id="be4c5db2-470c-4139-8b81-6c37eb358251" data-name="Lag 1"><path d="M57.62,19.5a.45.45,0,0,1-.35-.15.48.48,0,0,1,0-.7.45.45,0,0,1,.35-.15H88.89a.47.47,0,0,1,.35.15.48.48,0,0,1,0,.7.47.47,0,0,1-.35.15Z" fill="#fff"/><path d="M88.89,16H57.62a3,3,0,0,0,0,6H88.89a3,3,0,0,0,2.1-.88,3,3,0,0,0,0-4.24A3,3,0,0,0,88.89,16Z"/><path d="M57.62,30.5a.45.45,0,0,1-.35-.15.48.48,0,0,1,0-.7.45.45,0,0,1,.35-.15H88.89a.47.47,0,0,1,.35.15.48.48,0,0,1,0,.7.47.47,0,0,1-.35.15Z" fill="#fff"/><path d="M88.89,27H57.62a3,3,0,0,0,0,6H88.89a3,3,0,0,0,2.1-.88,3,3,0,0,0,0-4.24A3,3,0,0,0,88.89,27Z"/><path d="M57.62,41.5a.45.45,0,0,1-.35-.15.48.48,0,0,1,0-.7.45.45,0,0,1,.35-.15H88.89a.47.47,0,0,1,.35.15.48.48,0,0,1,0,.7.47.47,0,0,1-.35.15Z" fill="#fff"/><path d="M88.89,38H57.62a3,3,0,0,0,0,6H88.89a3,3,0,0,0,2.1-.88,3,3,0,0,0,0-4.24A3,3,0,0,0,88.89,38Z"/><path d="M57.62,52.5a.45.45,0,0,1-.35-.15.48.48,0,0,1,0-.7.45.45,0,0,1,.35-.15H88.89a.47.47,0,0,1,.35.15.48.48,0,0,1,0,.7.47.47,0,0,1-.35.15Z" fill="#fff"/><path d="M88.89,49H57.62a3,3,0,0,0,0,6H88.89a3,3,0,0,0,2.1-.88,3,3,0,0,0,0-4.24A3,3,0,0,0,88.89,49Z"/><path d="M28.17,30.46H24.5a9.29,9.29,0,0,0-9.23,9.35v7.38a9.29,9.29,0,0,0,9.23,9.35h3.67a9.29,9.29,0,0,0,9.24-9.35V39.81A9.3,9.3,0,0,0,28.17,30.46Z"/><path d="M28.17,30.58a9.09,9.09,0,0,1,6.44,2.71,9.32,9.32,0,0,1,2.68,6.52v7.38a9.32,9.32,0,0,1-2.68,6.52,9.09,9.09,0,0,1-6.44,2.71H24.5a9.11,9.11,0,0,1-6.44-2.71,9.31,9.31,0,0,1-2.67-6.52V39.81a9.31,9.31,0,0,1,2.67-6.52,9.11,9.11,0,0,1,6.44-2.71Zm0-.25H24.5a9.27,9.27,0,0,0-6.61,2.78,9.53,9.53,0,0,0-2.75,6.7v7.38a9.53,9.53,0,0,0,2.75,6.7,9.27,9.27,0,0,0,6.61,2.78h3.67a9.29,9.29,0,0,0,6.62-2.78,9.52,9.52,0,0,0,2.74-6.7V39.81a9.52,9.52,0,0,0-2.74-6.7A9.29,9.29,0,0,0,28.17,30.33Z"/><path d="M26.34,29.21a7.68,7.68,0,0,0,7.45-7.88,7.67,7.67,0,0,0-7.45-7.87,7.66,7.66,0,0,0-7.45,7.87A7.67,7.67,0,0,0,26.34,29.21Z"/><path d="M26.34,13.58a7.55,7.55,0,0,1,7.32,7.75,7.55,7.55,0,0,1-7.32,7.75A7.56,7.56,0,0,1,19,21.33,7.57,7.57,0,0,1,26.34,13.58Zm0-.25a7.8,7.8,0,0,0-7.57,8,7.79,7.79,0,0,0,7.57,8,7.79,7.79,0,0,0,7.57-8A7.8,7.8,0,0,0,26.34,13.33Z"/><path d="M5.79,68.5a3.31,3.31,0,0,1-2.35-1,3.36,3.36,0,0,1-1-2.37V5.86a3.38,3.38,0,0,1,1-2.37,3.31,3.31,0,0,1,2.35-1h95.42a3.31,3.31,0,0,1,2.35,1,3.38,3.38,0,0,1,1,2.37V65.14a3.36,3.36,0,0,1-1,2.37,3.31,3.31,0,0,1-2.35,1ZM8.2,4.05A4.75,4.75,0,0,0,4.85,5.46,4.82,4.82,0,0,0,3.46,8.85v53.3a4.82,4.82,0,0,0,1.39,3.39A4.75,4.75,0,0,0,8.2,67H98.8a4.75,4.75,0,0,0,3.35-1.41,4.82,4.82,0,0,0,1.39-3.39V8.85a4.82,4.82,0,0,0-1.39-3.39A4.75,4.75,0,0,0,98.8,4.05Z"/><path d="M101.21,0H5.79A5.73,5.73,0,0,0,1.7,1.72,5.88,5.88,0,0,0,0,5.86V65.14a5.88,5.88,0,0,0,1.7,4.14A5.73,5.73,0,0,0,5.79,71h95.42a5.77,5.77,0,0,0,4.1-1.72A5.92,5.92,0,0,0,107,65.14V5.86a5.92,5.92,0,0,0-1.69-4.14A5.77,5.77,0,0,0,101.21,0ZM8.2,64.45a2.29,2.29,0,0,1-1.61-.68,2.32,2.32,0,0,1-.66-1.62V8.85a2.32,2.32,0,0,1,.66-1.62A2.29,2.29,0,0,1,8.2,6.55H98.8a2.29,2.29,0,0,1,1.61.68,2.32,2.32,0,0,1,.66,1.62v53.3a2.32,2.32,0,0,1-.66,1.62,2.29,2.29,0,0,1-1.61.68Z"/></g></g></svg>