<svg xmlns="http://www.w3.org/2000/svg" viewBox="0 0 181 184"><g id="a64a00ff-62d9-4cfe-8738-29344e12cba3" data-name="Lag 2"><g id="b1937bda-9e56-4088-a363-0a87fd97c6d2" data-name="Lag 1"><path d="M0,80a5,5,0,0,1,5-5h6a5,5,0,0,1,5,5v88H165V80a5,5,0,0,1,5-5h6a5,5,0,0,1,5,5v99a5,5,0,0,1-5,5H5a5,5,0,0,1-5-5Z" fill-rule="evenodd"/><path d="M0,80a5,5,0,0,1,5-5h6a5,5,0,0,1,5,5v88H165V80a5,5,0,0,1,5-5h6a5,5,0,0,1,5,5v99a5,5,0,0,1-5,5H5a5,5,0,0,1-5-5Z" fill-rule="evenodd"/><path d="M0,80a5,5,0,0,1,5-5h6a5,5,0,0,1,5,5v88H165V80a5,5,0,0,1,5-5h6a5,5,0,0,1,5,5v99a5,5,0,0,1-5,5H5a5,5,0,0,1-5-5Z" fill-rule="evenodd"/><path d="M0,80a5,5,0,0,1,5-5h6a5,5,0,0,1,5,5v88H165V80a5,5,0,0,1,5-5h6a5,5,0,0,1,5,5v99a5,5,0,0,1-5,5H5a5,5,0,0,1-5-5Z" fill-rule="evenodd"/><path d="M71.32,37.5,54,0,36.68,37.5H45V121H63V37.5Z" fill-rule="evenodd"/><path d="M137,5H119V88.5h-8.32L128,126l17.32-37.5H137Z" fill-rule="evenodd"/></g></g></svg>