<svg width="20" height="20" viewBox="0 0 20 20" fill="none" xmlns="http://www.w3.org/2000/svg">
<path d="M9.21289 12.2383C9.22201 11.7005 9.29492 11.2676 9.43164 10.9395C9.56836 10.6113 9.8623 10.2262 10.3135 9.78418C10.7646 9.33757 11.054 9.02311 11.1816 8.84082C11.3138 8.65397 11.4141 8.45117 11.4824 8.23242C11.5553 8.00911 11.5918 7.75618 11.5918 7.47363C11.5918 6.90397 11.4391 6.45736 11.1338 6.13379C10.833 5.80566 10.4115 5.6416 9.86914 5.6416C9.32227 5.6416 8.88021 5.79883 8.54297 6.11328C8.21029 6.42318 8.03939 6.84473 8.03027 7.37793H7.2168C7.22591 6.63053 7.47884 6.03353 7.97559 5.58691C8.47233 5.13574 9.10352 4.91016 9.86914 4.91016C10.653 4.91016 11.2705 5.1403 11.7217 5.60059C12.1774 6.05632 12.4053 6.67611 12.4053 7.45996C12.4053 7.95215 12.2936 8.41471 12.0703 8.84766C11.847 9.27604 11.4232 9.77734 10.7988 10.3516C10.2839 10.7845 10.0264 11.4134 10.0264 12.2383H9.21289ZM9.10352 14.5215C9.10352 14.3665 9.15137 14.2367 9.24707 14.1318C9.34733 14.0225 9.48633 13.9678 9.66406 13.9678C9.83724 13.9678 9.97396 14.0225 10.0742 14.1318C10.179 14.2367 10.2314 14.3665 10.2314 14.5215C10.2314 14.6719 10.179 14.7995 10.0742 14.9043C9.97396 15.0046 9.83724 15.0547 9.66406 15.0547C9.48633 15.0547 9.34733 15.0046 9.24707 14.9043C9.15137 14.7995 9.10352 14.6719 9.10352 14.5215Z" fill="#979797"/>
<path fill-rule="evenodd" clip-rule="evenodd" d="M10 20C15.5228 20 20 15.5228 20 10C20 4.47715 15.5228 0 10 0C4.47715 0 0 4.47715 0 10C0 15.5228 4.47715 20 10 20ZM10 17.8569C14.3394 17.8569 17.8571 14.3391 17.8571 9.99972C17.8571 5.66034 14.3394 2.14258 10 2.14258C5.66062 2.14258 2.14286 5.66034 2.14286 9.99972C2.14286 14.3391 5.66062 17.8569 10 17.8569Z" fill="#C4C4C4"/>
</svg>
