<svg xmlns="http://www.w3.org/2000/svg" viewBox="0 0 251 99.94"><defs><style>.cls-1{fill:#999;}.cls-2{fill:#fff;}</style></defs><g id="Layer_2" data-name="Layer 2"><g id="Layer_1-2" data-name="Layer 1"><path d="M242,78V48.07a37.54,37.54,0,1,0-75.08,0V78H1V6H250V78Z"/><path d="M249,7V77h-6V48.07a38.54,38.54,0,1,0-77.08,0V77H2V7H249m2-2H0V79H167.94V48.07a36.54,36.54,0,1,1,73.08,0V79h10V5Z"/><path class="cls-1" d="M235.9,99.94V48.36a31.25,31.25,0,1,0-62.49,0V99.94Z"/><rect class="cls-2" x="28.5" y="26.5" width="112" height="32"/><path d="M140,27V58H29V27H140m1-1H28V59H141V26Z"/><rect x="21.5" y="0.5" width="21" height="5"/><path d="M42,1V5H22V1H42m1-1H21V6H43V0Z"/><rect x="126.5" y="0.5" width="21" height="5"/><path d="M147,1V5H127V1h20m1-1H126V6h22V0Z"/><path class="cls-2" d="M204.31,66.33A17.67,17.67,0,1,1,222,48.67,17.69,17.69,0,0,1,204.31,66.33Z"/><path d="M204.31,32a16.67,16.67,0,1,1-16.67,16.67A16.69,16.69,0,0,1,204.31,32m0-2A18.67,18.67,0,1,0,223,48.67,18.67,18.67,0,0,0,204.31,30Z"/></g></g></svg>