<svg width="37" height="11" viewBox="0 0 37 11" fill="none" xmlns="http://www.w3.org/2000/svg">
<path d="M36 0.25H1C0.585786 0.25 0.25 0.585786 0.25 1V10C0.25 10.4142 0.585786 10.75 1 10.75H36C36.4142 10.75 36.75 10.4142 36.75 10V1C36.75 0.585786 36.4142 0.25 36 0.25Z" fill="black"/>
<path d="M36 0.5C36.1326 0.5 36.2598 0.552678 36.3536 0.646447C36.4473 0.740215 36.5 0.867392 36.5 1V10C36.5 10.1326 36.4473 10.2598 36.3536 10.3536C36.2598 10.4473 36.1326 10.5 36 10.5H1C0.867392 10.5 0.740215 10.4473 0.646447 10.3536C0.552678 10.2598 0.5 10.1326 0.5 10V1C0.5 0.867392 0.552678 0.740215 0.646447 0.646447C0.740215 0.552678 0.867392 0.5 1 0.5H36ZM36 0H1C0.734784 0 0.48043 0.105357 0.292893 0.292893C0.105357 0.48043 0 0.734784 0 1L0 10C0 10.2652 0.105357 10.5196 0.292893 10.7071C0.48043 10.8946 0.734784 11 1 11H36C36.2652 11 36.5196 10.8946 36.7071 10.7071C36.8946 10.5196 37 10.2652 37 10V1C37 0.734784 36.8946 0.48043 36.7071 0.292893C36.5196 0.105357 36.2652 0 36 0V0Z" fill="black"/>
<path d="M5 3H1V4H5V3Z" fill="white"/>
<path d="M5 5H1V6H5V5Z" fill="white"/>
<path d="M5 7H1V8H5V7Z" fill="white"/>
<path d="M5 9H1V10H5V9Z" fill="white"/>
<path d="M31.5 8C32.8807 8 34 6.88071 34 5.5C34 4.11929 32.8807 3 31.5 3C30.1193 3 29 4.11929 29 5.5C29 6.88071 30.1193 8 31.5 8Z" fill="white"/>
<path d="M5 1H1V2H5V1Z" fill="white"/>
</svg>
