<svg xmlns="http://www.w3.org/2000/svg" viewBox="0 0 108 108.02"><g id="b118304e-6255-4194-b5ad-e678b38520d2" data-name="Lag 2"><g id="e9231ade-b334-47f3-b397-cd9546edb7a5" data-name="Lag 1"><path d="M18.84,54A34.92,34.92,0,0,1,64.12,20.7V31.82a24.51,24.51,0,1,0,0,44.4V87.34A34.92,34.92,0,0,1,18.84,54Z" fill="#ff8a8a"/><path d="M54,108a53.9,53.9,0,1,1,21-4.24A54,54,0,0,1,54,108ZM54,6.66A47.35,47.35,0,1,0,87.47,20.53,47.37,47.37,0,0,0,54,6.66Z" fill="#ff8a8a"/><rect x="61.07" y="39.52" width="7" height="30" rx="2" transform="translate(-19.64 61.62) rotate(-45)" fill="#ff8a8a"/><rect x="49.57" y="51.02" width="30" height="7" rx="2" transform="translate(-19.64 61.62) rotate(-45)" fill="#ff8a8a"/></g></g></svg>