<svg viewBox="0 0 108 109" fill="none" xmlns="http://www.w3.org/2000/svg">
<path d="M54 108C40.6368 107.989 27.7542 103.014 17.8519 94.0405C7.94957 85.0672 1.73369 72.7353 0.41033 59.4378C-0.913027 46.1402 2.7505 32.8252 10.6901 22.0763C18.6296 11.3273 30.2791 3.91097 43.378 1.26623C56.4769 -1.3785 70.0912 0.936972 81.5793 7.76337C93.0674 14.5898 101.61 25.4403 105.55 38.2096C109.489 50.9789 108.545 64.7565 102.9 76.8689C97.2552 88.9813 87.312 98.5649 75 103.76C68.3534 106.562 61.2129 108.003 54 108V108ZM54 6.66007C43.0449 6.65706 32.4276 10.4528 23.9575 17.4006C15.4873 24.3484 9.6884 34.0183 7.54882 44.7624C5.40924 55.5066 7.06142 66.6603 12.2238 76.3228C17.3862 85.9854 25.7394 93.5589 35.8599 97.7529C45.9805 101.947 57.2422 102.502 67.726 99.323C78.2099 96.1443 87.2671 89.4286 93.3544 80.3204C99.4417 71.2121 102.182 60.2749 101.109 49.3724C100.036 38.47 95.2161 28.2769 87.47 20.5301C78.592 11.6543 66.5538 6.66571 54 6.66007V6.66007Z" fill="#4486AB"/>
<path d="M18.84 54.0001C18.8475 48.5316 20.1392 43.1413 22.611 38.2634C25.0829 33.3854 28.6659 29.1562 33.0713 25.9163C37.4767 22.6765 42.5815 20.5166 47.9744 19.6105C53.3673 18.7045 58.8977 19.0777 64.12 20.7001V31.8201C60.3847 30.0724 56.2689 29.2954 52.1535 29.561C48.0381 29.8267 44.0563 31.1265 40.5768 33.34C37.0973 35.5535 34.2325 38.6091 32.2478 42.224C30.263 45.8389 29.2225 49.8962 29.2225 54.0201C29.2225 58.144 30.263 62.2013 32.2478 65.8162C34.2325 69.4311 37.0973 72.4868 40.5768 74.7003C44.0563 76.9138 48.0381 78.2135 52.1535 78.4792C56.2689 78.7449 60.3847 77.9679 64.12 76.2201V87.3401C58.8944 88.9635 53.3606 89.3362 47.9646 88.428C42.5686 87.5199 37.4615 85.3564 33.0552 82.112C28.6489 78.8677 25.0667 74.6332 22.5975 69.7501C20.1283 64.867 18.8412 59.472 18.84 54.0001V54.0001Z" fill="#4486AB"/>
<path d="M54.86 59.57C54.8203 59.5714 54.7806 59.5646 54.7436 59.55C54.7066 59.5354 54.6729 59.5133 54.6448 59.4852C54.6166 59.4571 54.5946 59.4234 54.58 59.3864C54.5654 59.3494 54.5586 59.3097 54.56 59.27V57.52C54.5586 57.4802 54.5654 57.4406 54.58 57.4035C54.5946 57.3665 54.6166 57.3329 54.6448 57.3047C54.6729 57.2766 54.7066 57.2545 54.7436 57.2399C54.7806 57.2254 54.8203 57.2186 54.86 57.22H59V50.81H54.86C54.7805 50.81 54.7042 50.7784 54.6479 50.7221C54.5916 50.6658 54.56 50.5895 54.56 50.51V48.75C54.5586 48.7102 54.5654 48.6706 54.58 48.6335C54.5946 48.5965 54.6166 48.5629 54.6448 48.5347C54.6729 48.5066 54.7066 48.4845 54.7436 48.4699C54.7806 48.4554 54.8203 48.4486 54.86 48.45H59V42.45C59 42.1847 58.8947 41.9304 58.7071 41.7429C58.5196 41.5553 58.2652 41.45 58 41.45H55.41C52.4501 41.4467 49.5837 42.4865 47.3142 44.3866C45.0447 46.2867 43.5172 48.9256 43 51.84H33.65C33.5182 51.8425 33.3925 51.896 33.2993 51.9892C33.2061 52.0825 33.1526 52.2082 33.15 52.34V55.68C33.15 55.8126 33.2027 55.9397 33.2965 56.0335C33.3902 56.1273 33.5174 56.18 33.65 56.18H43C43.5091 59.1007 45.0333 61.7478 47.3038 63.6542C49.5744 65.5607 52.4453 66.6039 55.41 66.6H58C58.2652 66.6 58.5196 66.4946 58.7071 66.3071C58.8947 66.1195 59 65.8652 59 65.6V59.6L54.86 59.57Z" fill="#4486AB"/>
<path d="M94.59 51.8402H85.22C84.7097 48.9237 83.1879 46.2804 80.9219 44.3747C78.6559 42.469 75.7908 41.4229 72.83 41.4202H70.27C70.0048 41.4202 69.7505 41.5255 69.5629 41.7131C69.3754 41.9006 69.27 42.1549 69.27 42.4202V48.4202H64.41C64.3703 48.4188 64.3306 48.4256 64.2936 48.4402C64.2566 48.4547 64.2229 48.4768 64.1948 48.5049C64.1667 48.5331 64.1446 48.5667 64.13 48.6037C64.1154 48.6408 64.1086 48.6804 64.11 48.7202V50.4802C64.11 50.5597 64.1416 50.636 64.1979 50.6923C64.2542 50.7486 64.3305 50.7802 64.41 50.7802H69.27V57.1902H64.41C64.3703 57.1888 64.3306 57.1956 64.2936 57.2102C64.2566 57.2247 64.2229 57.2468 64.1948 57.2749C64.1667 57.3031 64.1446 57.3367 64.13 57.3737C64.1154 57.4108 64.1086 57.4504 64.11 57.4902V59.2402C64.1086 59.2799 64.1154 59.3196 64.13 59.3566C64.1446 59.3936 64.1667 59.4273 64.1948 59.4554C64.2229 59.4835 64.2566 59.5056 64.2936 59.5202C64.3306 59.5348 64.3703 59.5416 64.41 59.5402H69.27V65.5402C69.27 65.8054 69.3754 66.0597 69.5629 66.2473C69.7505 66.4348 70.0048 66.5402 70.27 66.5402H72.82C75.7744 66.5443 78.636 65.5084 80.9032 63.6142C83.1705 61.72 84.6987 59.0882 85.22 56.1802H94.59C94.7226 56.1802 94.8498 56.1275 94.9436 56.0337C95.0374 55.94 95.09 55.8128 95.09 55.6802V52.3402C95.0875 52.2084 95.034 52.0827 94.9408 51.9894C94.8475 51.8962 94.7218 51.8427 94.59 51.8402V51.8402Z" fill="#4486AB"/>
</svg>
