<svg xmlns="http://www.w3.org/2000/svg" viewBox="0 0 93.8 94"><g id="fa8423d7-c29d-4e12-a0d6-a429c68f4929" data-name="Lag 2"><g id="e49938fb-3951-4bc2-9ac2-164490226303" data-name="Lag 1"><path d="M89.4,66.9H72.7a32.52,32.52,0,0,0,0-39.8H89.4A47.48,47.48,0,0,1,93.8,47,46,46,0,0,1,89.4,66.9Z"/><path d="M46.9,66.8A19.9,19.9,0,1,0,27,46.9,19.9,19.9,0,0,0,46.9,66.8Z"/><path d="M14.3,47A32.69,32.69,0,0,0,46.9,79.7a32.14,32.14,0,0,0,13.5-3V92a46.42,46.42,0,0,1-13.5,2,47,47,0,0,1,0-94A46.42,46.42,0,0,1,60.4,2V17.3a32.14,32.14,0,0,0-13.5-3A32.63,32.63,0,0,0,14.3,47Z"/></g></g></svg>