<svg xmlns="http://www.w3.org/2000/svg" viewBox="0 0 108 108.02"><g id="a63afef3-5837-4b1b-8636-23a98b44df83" data-name="Lag 2"><g id="f3552c9d-651a-44a3-b945-c2059af98247" data-name="Lag 1"><path class="c" d="M18.84,54A34.92,34.92,0,0,1,64.12,20.7V31.82a24.51,24.51,0,1,0,0,44.4V87.34A34.92,34.92,0,0,1,18.84,54Z" fill="#4486ab"/><path d="M54,108a53.9,53.9,0,1,1,21-4.24A54,54,0,0,1,54,108ZM54,6.66A47.35,47.35,0,1,0,87.47,20.53,47.37,47.37,0,0,0,54,6.66Z" fill="#4486ab"/><path class="arrows" d="M46.06,67.8,44.3,70.86,43,66,43,66l0-.07-.61-2.3L44.67,63l0-.06.07,0,4.8-1.3-1.76,3.06A12.43,12.43,0,0,0,64.66,47.68l3-1.77A16,16,0,0,1,46.06,67.8ZM65,42.1l.61,2.31L63.3,45l0,.07-.07,0-4.8,1.3,1.76-3.06A12.42,12.42,0,0,0,43.31,60.35l-3,1.78A15.95,15.95,0,0,1,61.91,40.24l1.76-3.07L65,42,65,42Z" fill="#4486ab"/></g></g></svg>