<svg xmlns="http://www.w3.org/2000/svg" viewBox="0 0 162 158"><g id="b9d2d3f9-e7d9-489c-a741-8a35d21c024a" data-name="Lag 2"><g id="ad695210-5872-4091-906c-54baa3f4bb22" data-name="Lag 1"><g opacity="0.8"><path d="M162,88.65c0-24.52-13.76-44.39-30.73-44.39s-30.73,19.87-30.73,44.39c0,1.61.06,3.21.18,4.79v33a6.9,6.9,0,0,0,7.15,6.62h46.81a6.9,6.9,0,0,0,7.14-6.62v-33C161.94,91.86,162,90.26,162,88.65Z" opacity="0.8" style="isolation:isolate"/><path d="M131.45,42.83a20.36,20.36,0,1,0-20.37-20.36A20.36,20.36,0,0,0,131.45,42.83Z" opacity="0.8" style="isolation:isolate"/></g><g opacity="0.5"><path d="M61.46,88.68c0-24.51-13.76-44.38-30.73-44.38S0,64.17,0,88.68c0,1.62.06,3.22.18,4.79v33a6.9,6.9,0,0,0,7.14,6.62H54.13a6.9,6.9,0,0,0,7.15-6.62v-33C61.4,91.9,61.46,90.3,61.46,88.68Z" opacity="0.5" style="isolation:isolate"/><path d="M30.91,42.87A20.37,20.37,0,1,0,10.54,22.51,20.36,20.36,0,0,0,30.91,42.87Z" opacity="0.5" style="isolation:isolate"/></g><path d="M117.61,104.44c0-29.59-16.6-53.59-37.08-53.59s-37.08,24-37.08,53.59c0,2,.07,3.88.21,5.78V150c0,4.41,3.86,8,8.63,8h56.48c4.77,0,8.63-3.57,8.63-8V110.22C117.56,108.32,117.61,106.39,117.61,104.44Z"/><path d="M80.75,49.15A24.58,24.58,0,1,0,56.17,24.57,24.58,24.58,0,0,0,80.75,49.15Z"/></g></g></svg>