<svg xmlns="http://www.w3.org/2000/svg" xmlns:xlink="http://www.w3.org/1999/xlink" viewBox="0 0 34 34"><defs><clipPath id="af7b4dec-e878-4da6-a0fc-199736b28d42" transform="translate(0 0)"><rect width="34" height="34" fill="none"/></clipPath></defs><g id="b83be582-9a52-4f51-855f-3e89ae873bb7" data-name="Lag 2"><g id="b95fe3e2-e966-4ec9-b13f-71d11f864cbd" data-name="Lag 1"><g clip-path="url(#af7b4dec-e878-4da6-a0fc-199736b28d42)"><path d="M31.61.13l-30.5,12a1.87,1.87,0,0,0-.78.61A1.75,1.75,0,0,0,0,13.7a1.69,1.69,0,0,0,.23,1,1.66,1.66,0,0,0,.7.69L9.45,20a.93.93,0,0,0,.49.11.83.83,0,0,0,.48-.15l7.55-5a.9.9,0,0,1,.53-.14A.79.79,0,0,1,19,15a.8.8,0,0,1,.23.49.75.75,0,0,1-.14.52l-5,7.56a.92.92,0,0,0-.16.48,1,1,0,0,0,.12.49l4.65,8.52A1.78,1.78,0,0,0,20.3,34a1.72,1.72,0,0,0,.93-.33,1.78,1.78,0,0,0,.61-.77l12-30.51a1.71,1.71,0,0,0,.09-1A1.72,1.72,0,0,0,32.61,0,1.71,1.71,0,0,0,31.61.13Z" transform="translate(0 0)"/></g></g></g></svg>