<svg viewBox="0 0 19 19" fill="none" xmlns="http://www.w3.org/2000/svg">
<path d="M17.5471 8.04706H10.9529V1.45294C10.9529 1.0676 10.7999 0.698036 10.5274 0.425557C10.2549 0.153077 9.88534 0 9.5 0C9.11466 0 8.74509 0.153077 8.47262 0.425557C8.20014 0.698036 8.04706 1.0676 8.04706 1.45294V8.04706H1.45294C1.0676 8.04706 0.698036 8.20014 0.425557 8.47262C0.153077 8.74509 0 9.11466 0 9.5C0 9.88534 0.153077 10.2549 0.425557 10.5274C0.698036 10.7999 1.0676 10.9529 1.45294 10.9529H8.04706V17.5471C8.04706 17.9334 8.20055 18.304 8.47376 18.5772C8.74697 18.8504 9.11753 19.0039 9.50391 19.0039C9.89029 19.0039 10.2608 18.8504 10.5341 18.5772C10.8073 18.304 10.9608 17.9334 10.9608 17.5471V10.9529H17.5471C17.9334 10.9529 18.304 10.7995 18.5772 10.5262C18.8504 10.253 19.0039 9.88247 19.0039 9.49609C19.0039 9.10971 18.8504 8.73915 18.5772 8.46594C18.304 8.19272 17.9334 8.03924 17.5471 8.03924V8.04706Z" fill="#181817"/>
</svg>
