<svg viewBox="0 0 189 171" fill="none" xmlns="http://www.w3.org/2000/svg">
<path d="M125.5 108.5H63.5V116.5H125.5V108.5Z" fill="black"/>
<path d="M125 109V116H64V109H125ZM126 108H63V117H126V108Z" fill="black"/>
<path d="M125.5 126.5H63.5V134.5H125.5V126.5Z" fill="black"/>
<path d="M125 127V134H64V127H125ZM126 126H63V135H126V126Z" fill="black"/>
<path d="M125.5 144.5H63.5V152.5H125.5V144.5Z" fill="black"/>
<path d="M125 145V152H64V145H125ZM126 144H63V153H126V144Z" fill="black"/>
<path d="M132.67 5C134.348 5.00264 135.957 5.6704 137.143 6.85694C138.33 8.04347 138.997 9.65199 139 11.33V159.67C138.997 161.348 138.33 162.957 137.143 164.143C135.957 165.33 134.348 165.997 132.67 166H56.33C54.652 165.997 53.0435 165.33 51.8569 164.143C50.6704 162.957 50.0026 161.348 50 159.67V11.33C50.0026 9.65199 50.6704 8.04347 51.8569 6.85694C53.0435 5.6704 54.652 5.00264 56.33 5H132.67ZM132.67 0H56.33C53.3251 0 50.4433 1.19369 48.3185 3.31848C46.1937 5.44327 45 8.3251 45 11.33V159.67C45 162.675 46.1937 165.557 48.3185 167.682C50.4433 169.806 53.3251 171 56.33 171H132.67C135.675 171 138.557 169.806 140.682 167.682C142.806 165.557 144 162.675 144 159.67V11.33C144 9.84212 143.707 8.36882 143.138 6.9942C142.568 5.61958 141.734 4.37057 140.682 3.31848C139.629 2.26639 138.38 1.43183 137.006 0.862445C135.631 0.293059 134.158 0 132.67 0V0Z" fill="black"/>
<path d="M144.5 125.5V98.5H44.5V125.5H11.33C8.45852 125.497 5.7054 124.355 3.67496 122.325C1.64451 120.295 0.502648 117.541 0.5 114.67V47.33C0.502648 44.4585 1.64451 41.7054 3.67496 39.675C5.7054 37.6445 8.45852 36.5026 11.33 36.5H177.67C180.541 36.5026 183.295 37.6445 185.325 39.675C187.355 41.7054 188.497 44.4585 188.5 47.33V114.67C188.497 117.541 187.355 120.295 185.325 122.325C183.295 124.355 180.541 125.497 177.67 125.5H144.5ZM83.96 44.5C83.5022 44.5 83.049 44.5908 82.6266 44.7672C82.2042 44.9435 81.821 45.202 81.4992 45.5275C81.1773 45.8531 80.9233 46.2392 80.7518 46.6636C80.5803 47.088 80.4947 47.5423 80.5 48V51C80.5 51.9176 80.8645 52.7977 81.5134 53.4466C82.1623 54.0955 83.0424 54.46 83.96 54.46H105.04C105.494 54.46 105.944 54.3705 106.364 54.1966C106.784 54.0227 107.165 53.7679 107.487 53.4466C107.808 53.1253 108.063 52.7439 108.237 52.3241C108.411 51.9043 108.5 51.4544 108.5 51V48C108.5 47.0824 108.135 46.2023 107.487 45.5534C106.838 44.9045 105.958 44.54 105.04 44.54L83.96 44.5ZM40.5 44.5C39.5111 44.5 38.5444 44.7932 37.7221 45.3427C36.8999 45.8921 36.259 46.673 35.8806 47.5866C35.5022 48.5002 35.4031 49.5055 35.5961 50.4755C35.789 51.4454 36.2652 52.3363 36.9645 53.0355C37.6637 53.7348 38.5546 54.211 39.5245 54.4039C40.4945 54.5969 41.4998 54.4978 42.4134 54.1194C43.327 53.741 44.1079 53.1001 44.6573 52.2779C45.2068 51.4556 45.5 50.4889 45.5 49.5C45.5 48.1739 44.9732 46.9021 44.0355 45.9645C43.0979 45.0268 41.8261 44.5 40.5 44.5ZM22.5 44.5C21.5111 44.5 20.5444 44.7932 19.7221 45.3427C18.8999 45.8921 18.259 46.673 17.8806 47.5866C17.5022 48.5002 17.4031 49.5055 17.5961 50.4755C17.789 51.4454 18.2652 52.3363 18.9645 53.0355C19.6637 53.7348 20.5546 54.211 21.5245 54.4039C22.4945 54.5969 23.4998 54.4978 24.4134 54.1194C25.327 53.741 26.1079 53.1001 26.6573 52.2779C27.2068 51.4556 27.5 50.4889 27.5 49.5C27.5 48.1739 26.9732 46.9021 26.0355 45.9645C25.0979 45.0268 23.8261 44.5 22.5 44.5Z" fill="black"/>
<path d="M177.67 37C180.409 37.0026 183.035 38.0918 184.971 40.0285C186.908 41.9652 187.997 44.5911 188 47.33V114.67C187.997 117.409 186.908 120.035 184.971 121.971C183.035 123.908 180.409 124.997 177.67 125H145V98H44V125H11.33C8.59113 124.997 5.96519 123.908 4.02851 121.971C2.09183 120.035 1.00265 117.409 1 114.67V47.33C1.00265 44.5911 2.09183 41.9652 4.02851 40.0285C5.96519 38.0918 8.59113 37.0026 11.33 37H177.67ZM83.96 55H105.04C106.101 55 107.118 54.5786 107.868 53.8284C108.619 53.0783 109.04 52.0609 109.04 51V48C109.04 46.9391 108.619 45.9217 107.868 45.1716C107.118 44.4214 106.101 44 105.04 44H83.96C82.8991 44 81.8817 44.4214 81.1316 45.1716C80.3814 45.9217 79.96 46.9391 79.96 48V51C79.96 52.0609 80.3814 53.0783 81.1316 53.8284C81.8817 54.5786 82.8991 55 83.96 55ZM40.5 55C41.5878 55 42.6512 54.6774 43.5556 54.0731C44.4601 53.4687 45.1651 52.6098 45.5813 51.6048C45.9976 50.5998 46.1065 49.4939 45.8943 48.427C45.6821 47.3601 45.1583 46.3801 44.3891 45.6109C43.6199 44.8417 42.6399 44.3179 41.573 44.1057C40.5061 43.8935 39.4002 44.0024 38.3952 44.4187C37.3902 44.8349 36.5313 45.5399 35.9269 46.4444C35.3226 47.3488 35 48.4122 35 49.5C35.0026 50.9579 35.583 52.3553 36.6138 53.3862C37.6447 54.417 39.0421 54.9974 40.5 55ZM22.5 55C23.5878 55 24.6512 54.6774 25.5556 54.0731C26.4601 53.4687 27.1651 52.6098 27.5813 51.6048C27.9976 50.5998 28.1065 49.4939 27.8943 48.427C27.6821 47.3601 27.1583 46.3801 26.3891 45.6109C25.6199 44.8417 24.6399 44.3179 23.573 44.1057C22.5061 43.8935 21.4002 44.0024 20.3952 44.4187C19.3902 44.8349 18.5313 45.5399 17.9269 46.4444C17.3226 47.3488 17 48.4122 17 49.5C17.0026 50.9579 17.583 52.3553 18.6138 53.3862C19.6447 54.417 21.0421 54.9974 22.5 55ZM177.67 36H11.33C9.84212 36 8.36882 36.2931 6.9942 36.8624C5.61958 37.4318 4.37057 38.2664 3.31848 39.3185C1.19369 41.4433 0 44.3251 0 47.33V114.67C0 117.675 1.19369 120.557 3.31848 122.682C4.37057 123.734 5.61958 124.568 6.9942 125.138C8.36882 125.707 9.84212 126 11.33 126H45V99H144V126H177.67C179.158 126 180.631 125.707 182.006 125.138C183.38 124.568 184.629 123.734 185.682 122.682C186.734 121.629 187.568 120.38 188.138 119.006C188.707 117.631 189 116.158 189 114.67V47.33C189 45.8421 188.707 44.3688 188.138 42.9942C187.568 41.6196 186.734 40.3706 185.682 39.3185C184.629 38.2664 183.38 37.4318 182.006 36.8624C180.631 36.2931 179.158 36 177.67 36ZM83.96 54C83.1644 54 82.4013 53.6839 81.8387 53.1213C81.2761 52.5587 80.96 51.7956 80.96 51V48C80.96 47.2044 81.2761 46.4413 81.8387 45.8787C82.4013 45.3161 83.1644 45 83.96 45H105.04C105.836 45 106.599 45.3161 107.161 45.8787C107.724 46.4413 108.04 47.2044 108.04 48V51C108.04 51.7956 107.724 52.5587 107.161 53.1213C106.599 53.6839 105.836 54 105.04 54H83.96ZM40.5 54C39.61 54 38.74 53.7361 37.9999 53.2416C37.2599 52.7471 36.6831 52.0443 36.3425 51.2221C36.0019 50.3998 35.9128 49.495 36.0865 48.6221C36.2601 47.7492 36.6887 46.9474 37.318 46.318C37.9474 45.6887 38.7492 45.2601 39.6221 45.0865C40.495 44.9128 41.3998 45.0019 42.2221 45.3425C43.0443 45.6831 43.7471 46.2599 44.2416 46.9999C44.7361 47.74 45 48.61 45 49.5C45.0013 50.0913 44.8858 50.6771 44.6601 51.2236C44.4345 51.7702 44.103 52.2668 43.6849 52.6849C43.2668 53.103 42.7702 53.4345 42.2236 53.6601C41.6771 53.8858 41.0913 54.0013 40.5 54ZM22.5 54C21.61 54 20.74 53.7361 19.9999 53.2416C19.2599 52.7471 18.6831 52.0443 18.3425 51.2221C18.0019 50.3998 17.9128 49.495 18.0865 48.6221C18.2601 47.7492 18.6887 46.9474 19.318 46.318C19.9474 45.6887 20.7492 45.2601 21.6221 45.0865C22.495 44.9128 23.3998 45.0019 24.2221 45.3425C25.0443 45.6831 25.7471 46.2599 26.2416 46.9999C26.7361 47.74 27 48.61 27 49.5C27.0013 50.0913 26.8858 50.6771 26.6601 51.2236C26.4345 51.7702 26.103 52.2668 25.6849 52.6849C25.2668 53.103 24.7702 53.4345 24.2236 53.6601C23.6771 53.8858 23.0913 54.0013 22.5 54Z" fill="black"/>
</svg>
