<svg viewBox="-3 -3 20 20" fill="none" xmlns="http://www.w3.org/2000/svg">
<path d="M15.6576 5.62922C15.6335 5.55037 15.5929 5.47756 15.5384 5.41561C15.484 5.35367 15.417 5.304 15.342 5.26992C15.2669 5.23583 15.1854 5.21811 15.1029 5.21791C15.0205 5.21772 14.9389 5.23506 14.8637 5.2688C14.7107 5.338 14.5878 5.46016 14.5177 5.61278C14.4477 5.7654 14.4351 5.93819 14.4824 6.09934C14.9122 7.42745 14.9223 8.85578 14.5113 10.1899C14.1003 11.5239 13.2881 12.6989 12.1853 13.5548C11.0826 14.4107 9.74282 14.906 8.34848 14.9732C6.95415 15.0403 5.57299 14.6761 4.39306 13.9302C3.21314 13.1842 2.29177 12.0928 1.75442 10.8044C1.21707 9.51598 1.08985 8.0933 1.39007 6.73001C1.69029 5.36673 2.40337 4.12909 3.43222 3.18561C4.46106 2.24214 5.75569 1.63867 7.13981 1.45736V2.68838C6.9657 2.71623 6.80377 2.74758 6.63313 2.7911C5.55739 3.06705 4.58866 3.65818 3.85127 4.48862C3.11388 5.31905 2.64148 6.3509 2.4947 7.45173C2.34792 8.55255 2.53346 9.67213 3.0275 10.6668C3.52154 11.6614 4.30155 12.4857 5.26741 13.0339C6.23326 13.582 7.34089 13.829 8.44814 13.7432C9.55539 13.6574 10.6117 13.2427 11.4816 12.5522C12.3514 11.8618 12.9951 10.9271 13.33 9.86824C13.6649 8.80936 13.6757 7.67457 13.361 6.6095C13.3339 6.52231 13.2886 6.4419 13.228 6.37362C13.1673 6.30534 13.0929 6.25076 13.0095 6.21352C12.9261 6.17629 12.8358 6.15725 12.7445 6.15768C12.6532 6.1581 12.563 6.17798 12.48 6.216H12.4678C12.3041 6.29198 12.1728 6.4238 12.0975 6.58781C12.0222 6.75182 12.0078 6.93729 12.0569 7.11096C12.2727 7.91784 12.2418 8.77087 11.9681 9.56C11.6944 10.3491 11.1906 11.0381 10.5215 11.5381C9.85246 12.0381 9.04893 12.3262 8.21459 12.3651C7.38026 12.404 6.55341 12.1919 5.84074 11.7564C5.12807 11.3208 4.56228 10.6816 4.21637 9.92138C3.87047 9.16114 3.76032 8.31468 3.90014 7.49122C4.03996 6.66777 4.42334 5.90511 5.0008 5.30165C5.57826 4.69819 6.32331 4.28162 7.13981 4.10569V5.91477C6.60767 6.11824 6.1636 6.50168 5.88474 6.99848C5.60587 7.49528 5.50983 8.07406 5.61328 8.63431C5.71674 9.19455 6.01316 9.70087 6.45106 10.0653C6.88896 10.4298 7.44068 10.6293 8.0104 10.6293C8.58012 10.6293 9.13184 10.4298 9.56974 10.0653C10.0076 9.70087 10.3041 9.19455 10.4075 8.63431C10.511 8.07406 10.4149 7.49528 10.1361 6.99848C9.8572 6.50168 9.41313 6.11824 8.88099 5.91477V0.788753C8.88191 0.596356 8.81186 0.410375 8.68424 0.2664C8.62278 0.185603 8.5439 0.119695 8.45347 0.0735746C8.36304 0.0274539 8.26337 0.00230604 8.16188 0H7.90767C7.56683 0.00326039 7.22658 0.0288525 6.88908 0.0766117C5.26609 0.305884 3.75252 1.02758 2.55267 2.14429C1.35283 3.261 0.524485 4.71894 0.179458 6.32132C-0.165568 7.9237 -0.0106643 9.59336 0.62326 11.1049C1.25718 12.6165 2.3396 13.8971 3.72441 14.7741C5.10921 15.651 6.72972 16.0819 8.36719 16.0087C10.0047 15.9355 11.5802 15.3616 12.8813 14.3646C14.1823 13.3676 15.1461 11.9954 15.6426 10.4333C16.139 8.87123 16.1443 7.19441 15.6576 5.62922Z" fill="#4486AB"/>
</svg>
