<svg xmlns="http://www.w3.org/2000/svg" viewBox="0 0 27 27"><defs><style>.cls-1{fill-rule:evenodd;}</style></defs><g id="Layer_2" data-name="Layer 2"><g id="Layer_1-2" data-name="Layer 1"><path class="cls-1" d="M20,14.36A10.39,10.39,0,1,1,3,3,10.39,10.39,0,0,1,14.36.79,10.39,10.39,0,0,1,20,14.36Zm-17.9-4A8.3,8.3,0,1,0,4.51,4.51,8.3,8.3,0,0,0,2.08,10.39Z"/><path d="M26.61,26.61a1.37,1.37,0,0,0,.39-.95,1.34,1.34,0,0,0-.39-.95L21,19.08a1.37,1.37,0,0,0-.93-.32,1.3,1.3,0,0,0-.89.39A1.33,1.33,0,0,0,19.09,21l5.63,5.63a1.34,1.34,0,0,0,1.89,0Z"/></g></g></svg>