<svg xmlns="http://www.w3.org/2000/svg" xmlns:xlink="http://www.w3.org/1999/xlink" viewBox="0 0 94.77 95.76"><defs><clipPath id="b31c0fe0-8772-4e90-bf9e-ca26ebaef5ca" transform="translate(-0.12 -0.12)"><rect width="95" height="96" fill="none"/></clipPath></defs><g id="b5f1013f-7aa1-45c1-b897-67ca0a98fd3f" data-name="Lag 2"><g id="ae1a2935-db08-4ae5-a986-23bcb9710d6b" data-name="Lag 1"><g clip-path="url(#b31c0fe0-8772-4e90-bf9e-ca26ebaef5ca)"><path d="M84.82,51.88l10.06-3c-.3-4.46-.25-3.66-.55-8.13L84,39.21c-.79-2.48-.92-2.88-1.7-5.35l7.56-7.36-4.23-6.95-9.9,3.5-4-3.94L75,9,68.1,4.88l-7.17,7.75L55.62,11,53.91.53l-8-.41L43.09,10.34,37.64,11.4,31.31,2.92,24,6.33l2.24,10.36L21.88,20.2l-9.49-4.52L7.48,22.14l6.75,8.11C13.2,32.63,13,33,12,35.39L1.5,35.85c-.76,4.42-.62,3.62-1.38,8l9.7,4c.18,2.59.21,3,.38,5.6L1.13,58.84,3.59,66.6,14,65.6l2.91,4.79-5.58,9,5.74,5.72,8.79-5.8,4.78,2.86-.83,10.58,7.72,2.36,5.12-9.26,5.54.3,4.13,9.75,7.91-1.54.28-10.6,5.05-2.35,8.15,6.7L80,83l-4.63-9.53L78.8,69l10.28,2.1c1.79-4.09,1.47-3.36,3.25-7.46l-8.47-6.26ZM47.52,76.59a28,28,0,0,1-15.7-4.81A28.58,28.58,0,0,1,21.41,59,28.82,28.82,0,0,1,27.53,27.8,28.08,28.08,0,0,1,71,32.13,28.81,28.81,0,0,1,67.5,68.22,28.1,28.1,0,0,1,47.52,76.59Z" transform="translate(-0.12 -0.12)"/></g></g></g></svg>