<svg xmlns="http://www.w3.org/2000/svg" xmlns:xlink="http://www.w3.org/1999/xlink" viewBox="0 0 11 13"><defs><clipPath id="bffee3b4-2927-4ac1-bc8e-f657033705a2" transform="translate(0 0)"><rect width="11" height="13" fill="none"/></clipPath></defs><g id="fd4a6d39-b745-4c63-a7a8-89fbb2299598" data-name="Lag 2"><g id="b456b607-ae7d-4699-9525-6e60591a8b53" data-name="Lag 1"><g clip-path="url(#bffee3b4-2927-4ac1-bc8e-f657033705a2)"><path d="M6,12.86a.93.93,0,0,1-1,0c-2.44-1.59-5-3.2-5-5.45V2.16a.51.51,0,0,1,.1-.29A.49.49,0,0,1,.35,1.7L5.22.05a.89.89,0,0,1,.56,0L10.65,1.7a.49.49,0,0,1,.25.17.53.53,0,0,1,.1.29V7.41C11,9.66,8.43,11.27,6,12.86Z" transform="translate(0 0)"/><path d="M7.52,4.65A2,2,0,0,0,6.89,3.3,1.94,1.94,0,0,0,5.5,2.79a1.94,1.94,0,0,0-1.39.51,2,2,0,0,0-.63,1.35V5h.84V4.65a1.13,1.13,0,0,1,.37-.79,1.15,1.15,0,0,1,.81-.3,1.15,1.15,0,0,1,.81.3,1.13,1.13,0,0,1,.37.79V5h.84Z" transform="translate(0 0)" fill="#fff"/><path d="M8.25,6.09A.72.72,0,0,0,8,5.58a.73.73,0,0,0-.54-.2H3.53a.77.77,0,0,0-.78.71V8.85a.51.51,0,0,0,.36.46,8.45,8.45,0,0,0,4.78,0,.51.51,0,0,0,.36-.46V6.09Z" transform="translate(0 0)" fill="#fff"/><path d="M5.89,7.51V8.2a.42.42,0,0,1-.14.24.36.36,0,0,1-.5,0,.37.37,0,0,1-.14-.24V7.51a.59.59,0,0,1-.24-.23A.53.53,0,0,1,4.77,7,.71.71,0,0,1,5,6.49a.67.67,0,0,1,.5-.17.67.67,0,0,1,.5.17A.71.71,0,0,1,6.23,7a.53.53,0,0,1-.1.32.59.59,0,0,1-.24.23Z" transform="translate(0 0)"/></g></g></g></svg>