<svg xmlns="http://www.w3.org/2000/svg" xmlns:xlink="http://www.w3.org/1999/xlink" viewBox="0 0 148.01 172.99"><defs><clipPath id="f65a68ee-e38d-40a7-bfa2-cda873e627cf"><rect x="20" y="38" width="96" height="96" fill="none"/></clipPath></defs><g id="e425f5f9-b3ff-4cbf-a354-e838bfbc610a" data-name="Lag 2"><g id="a34d7ecd-ff97-4abc-bea0-41a81e9f443c" data-name="Lag 1"><path d="M80.59,171.09a12.36,12.36,0,0,1-13.17,0C34.53,149.94,0,128.52,0,98.63V28.76a6.64,6.64,0,0,1,4.72-6.2L70.22.61a12.09,12.09,0,0,1,7.57,0l65.5,22a6.64,6.64,0,0,1,4.72,6.2V98.63C148,128.52,113.47,149.94,80.59,171.09Z"/><g clip-path="url(#f65a68ee-e38d-40a7-bfa2-cda873e627cf)"><path d="M109.26,38.37l-86.12,34a5,5,0,0,0-.5,9l24,13.14a2.57,2.57,0,0,0,1.38.33,2.6,2.6,0,0,0,1.35-.43L70.75,80.14a2.29,2.29,0,0,1,1.48-.4,2.22,2.22,0,0,1,1.39.66,2.16,2.16,0,0,1,.65,1.39,2.23,2.23,0,0,1-.39,1.48L59.63,104.61a2.64,2.64,0,0,0-.1,2.73L72.67,131.4a5,5,0,0,0,2,2,5,5,0,0,0,5.33-.3,5,5,0,0,0,1.72-2.17l34-86.16a4.83,4.83,0,0,0,.27-2.81,4.89,4.89,0,0,0-1.33-2.49,4.83,4.83,0,0,0-2.5-1.34A4.91,4.91,0,0,0,109.26,38.37Z" fill="#fff"/></g></g></g></svg>