<svg viewBox="7 7 26 26" fill="none" xmlns="http://www.w3.org/2000/svg">
<path d="M18.6711 21.7593C18.6711 21.207 18.2234 20.7593 17.6711 20.7593L8.67108 20.7593C8.1188 20.7593 7.67108 21.207 7.67108 21.7593C7.67108 22.3116 8.1188 22.7593 8.67108 22.7593L16.6711 22.7593L16.6711 30.7593C16.6711 31.3116 17.1188 31.7593 17.6711 31.7593C18.2234 31.7593 18.6711 31.3116 18.6711 30.7593L18.6711 21.7593ZM10.3782 30.4664L18.3782 22.4664L16.964 21.0522L8.96397 29.0522L10.3782 30.4664Z" fill="black"/>
<path d="M21.1013 17.3291C21.1013 17.8814 21.549 18.3291 22.1013 18.3291L31.1013 18.3291C31.6536 18.3291 32.1013 17.8814 32.1013 17.3291C32.1013 16.7768 31.6536 16.3291 31.1013 16.3291L23.1013 16.3291L23.1013 8.3291C23.1013 7.77682 22.6536 7.3291 22.1013 7.3291C21.549 7.3291 21.1013 7.77682 21.1013 8.3291L21.1013 17.3291ZM29.3942 8.62199L21.3942 16.622L22.8084 18.0362L30.8084 10.0362L29.3942 8.62199Z" fill="black"/>
</svg>
