<svg xmlns="http://www.w3.org/2000/svg" xmlns:xlink="http://www.w3.org/1999/xlink" viewBox="0 0 25.37 25.37"><defs><clipPath id="e07885d9-a18c-433f-8630-2ea63365bdc6" transform="translate(-0.23 -0.23)"><rect width="25.83" height="25.83" fill="none"/></clipPath></defs><g id="f6a05435-2837-4c17-a461-9fa8b93b20bf" data-name="Lag 2"><g id="afd1103c-b2ce-4f07-bcf6-be02baa563aa" data-name="Lag 1"><g clip-path="url(#e07885d9-a18c-433f-8630-2ea63365bdc6)"><path d="M12.91,23.37A10.46,10.46,0,1,0,2.46,12.91,10.46,10.46,0,0,0,12.91,23.37Z" transform="translate(-0.23 -0.23)" fill="#00bf94"/><path d="M12.91,24.6A11.69,11.69,0,1,0,1.23,12.91,11.69,11.69,0,0,0,12.91,24.6Z" transform="translate(-0.23 -0.23)" fill="none" stroke-miterlimit="10" stroke-width="2"/><path d="M19,8.52l.65.66a.92.92,0,0,1,0,1.28l-7.23,7.37c-1.17,1.19-1.27,1.19-2.46,0S7.45,15.28,6.19,14a.91.91,0,0,1-.25-.63.93.93,0,0,1,.25-.63l.66-.66a.86.86,0,0,1,.61-.25.9.9,0,0,1,.62.25l3.09,3.14,6.56-6.7a.89.89,0,0,1,1.24,0Z" transform="translate(-0.23 -0.23)" fill="#fff"/></g></g></g></svg>
